<svg width="77" height="56" viewBox="0 0 77 56" fill="none" xmlns="http://www.w3.org/2000/svg">
<path opacity="0.95" d="M34.64 55H1.84V47.8C11.92 37.2933 18.3467 30.2267 21.12 26.6C23.9467 22.9733 25.36 19.56 25.36 16.36C25.36 14.0133 24.6133 12.1467 23.12 10.76C21.6267 9.37333 19.8133 8.68 17.68 8.68C12.9867 8.68 9.2 10.7867 6.32 15L0.88 9.48C4.98667 3.72 10.6133 0.839996 17.76 0.839996C22.56 0.839996 26.5333 2.25333 29.68 5.08C32.8267 7.85333 34.4 11.5867 34.4 16.28C34.4 20.2267 32.9867 24.3067 30.16 28.52C27.3867 32.68 22.2667 38.8933 14.8 47.16H34.64V55ZM59.0269 55.96C51.6135 55.96 45.9602 53.1067 42.0669 47.4L47.5869 41.8C50.4135 45.96 54.1469 48.04 58.7869 48.04C61.4002 48.04 63.5069 47.1067 65.1069 45.24C66.7069 43.32 67.5069 41 67.5069 38.28C67.5069 35.1867 66.7602 32.7867 65.2669 31.08C63.8269 29.32 61.8002 28.44 59.1869 28.44C55.6669 28.44 52.6269 29.9867 50.0669 33.08L43.5869 31.24V1.64H73.5069V9.4H52.4669V25.24C54.8135 22.2533 58.0669 20.76 62.2269 20.76C66.3335 20.76 69.7202 22.3067 72.3869 25.4C75.1069 28.44 76.4669 32.6533 76.4669 38.04C76.4669 43.32 74.8669 47.64 71.6669 51C68.4669 54.3067 64.2535 55.96 59.0269 55.96Z" fill="#A30C33"/>
</svg>
