<svg width="161" height="56" viewBox="0 0 161 56" fill="none" xmlns="http://www.w3.org/2000/svg">
<path opacity="0.95" d="M31 55H22.2V42.6H0.76V35.16L19.64 1.64H31V34.84H36.6V42.6H31V55ZM22.2 34.84V10.84L8.76 34.84H22.2ZM59.975 55.96C56.6683 55.96 53.7883 55.2133 51.335 53.72C48.935 52.2267 47.015 50.1733 45.575 47.56C44.1883 44.9467 43.1483 42.04 42.455 38.84C41.815 35.64 41.495 32.1467 41.495 28.36C41.495 20.36 43.2017 13.7733 46.615 8.6C50.0283 3.42666 54.9617 0.839996 61.415 0.839996C67.015 0.839996 71.3883 2.89333 74.535 7L70.055 13.48C67.8683 10.28 65.015 8.68 61.495 8.68C58.0283 8.68 55.3083 10.4933 53.335 14.12C51.415 17.6933 50.455 21.96 50.455 26.92V28.12C51.4683 26.1467 53.015 24.4667 55.095 23.08C57.2283 21.64 59.5217 20.92 61.975 20.92C66.135 20.92 69.6017 22.44 72.375 25.48C75.1483 28.4667 76.535 32.68 76.535 38.12C76.535 43.1333 75.015 47.3733 71.975 50.84C68.935 54.2533 64.935 55.96 59.975 55.96ZM59.495 48.04C62.055 48.04 64.0283 47.08 65.415 45.16C66.8017 43.24 67.495 41 67.495 38.44C67.495 35.08 66.7217 32.6 65.175 31C63.6283 29.3467 61.6817 28.52 59.335 28.52C57.5217 28.52 55.8417 29.16 54.295 30.44C52.8017 31.6667 51.5483 33.24 50.535 35.16C50.6417 37.24 50.935 39.1867 51.415 41C51.9483 42.76 52.9083 44.3867 54.295 45.88C55.6817 47.32 57.415 48.04 59.495 48.04ZM100.274 55.96C97.181 55.96 94.4344 55.16 92.0344 53.56C89.6877 51.96 87.821 49.8267 86.4344 47.16C85.101 44.44 84.0877 41.5067 83.3944 38.36C82.701 35.16 82.3544 31.8267 82.3544 28.36C82.3544 24.8933 82.701 21.5867 83.3944 18.44C84.0877 15.24 85.101 12.3067 86.4344 9.64C87.821 6.97333 89.6877 4.84 92.0344 3.24C94.4344 1.64 97.181 0.839996 100.274 0.839996C104.381 0.839996 107.821 2.25333 110.594 5.08C113.421 7.85333 115.394 11.24 116.514 15.24C117.688 19.24 118.274 23.6133 118.274 28.36C118.274 33.1067 117.688 37.48 116.514 41.48C115.394 45.48 113.421 48.8933 110.594 51.72C107.821 54.5467 104.381 55.96 100.274 55.96ZM100.274 48.04C106.248 48.04 109.234 41.48 109.234 28.36C109.234 15.24 106.248 8.68 100.274 8.68C94.3544 8.68 91.3944 15.24 91.3944 28.36C91.3944 41.48 94.3544 48.04 100.274 48.04ZM142.384 55.96C139.29 55.96 136.544 55.16 134.144 53.56C131.797 51.96 129.93 49.8267 128.544 47.16C127.21 44.44 126.197 41.5067 125.504 38.36C124.81 35.16 124.464 31.8267 124.464 28.36C124.464 24.8933 124.81 21.5867 125.504 18.44C126.197 15.24 127.21 12.3067 128.544 9.64C129.93 6.97333 131.797 4.84 134.144 3.24C136.544 1.64 139.29 0.839996 142.384 0.839996C146.49 0.839996 149.93 2.25333 152.704 5.08C155.53 7.85333 157.504 11.24 158.624 15.24C159.797 19.24 160.384 23.6133 160.384 28.36C160.384 33.1067 159.797 37.48 158.624 41.48C157.504 45.48 155.53 48.8933 152.704 51.72C149.93 54.5467 146.49 55.96 142.384 55.96ZM142.384 48.04C148.357 48.04 151.344 41.48 151.344 28.36C151.344 15.24 148.357 8.68 142.384 8.68C136.464 8.68 133.504 15.24 133.504 28.36C133.504 41.48 136.464 48.04 142.384 48.04Z" fill="#A30C33"/>
</svg>
