<svg width="162" height="56" viewBox="0 0 162 56" fill="none" xmlns="http://www.w3.org/2000/svg">
<path opacity="0.95" d="M18.2 55.96C14.3067 55.96 10.8667 55.16 7.88 53.56C4.89333 51.9067 2.57333 49.8 0.92 47.24L6.36 41.72C9.29333 45.9333 13.1067 48.04 17.8 48.04C20.7333 48.04 22.92 47.2933 24.36 45.8C25.8533 44.3067 26.6 42.2533 26.6 39.64C26.6 34.3067 23.5067 31.64 17.32 31.64C14.7067 31.64 13.16 31.6933 12.68 31.8V23.8C13.2133 23.8533 14.7067 23.88 17.16 23.88C19.7733 23.88 21.88 23.2667 23.48 22.04C25.08 20.76 25.88 18.92 25.88 16.52C25.88 13.96 25.1067 12.0133 23.56 10.68C22.0667 9.34666 20.0667 8.68 17.56 8.68C13.2933 8.68 9.72 10.6 6.84 14.44L1.64 9.32C5.48 3.66666 11 0.839996 18.2 0.839996C23.2133 0.839996 27.2133 2.09333 30.2 4.6C33.1867 7.05333 34.68 10.5733 34.68 15.16C34.68 18.2 33.72 20.8667 31.8 23.16C29.88 25.4 27.56 26.8133 24.84 27.4C27.6133 27.8267 30.0667 29.24 32.2 31.64C34.3333 33.9867 35.4 36.92 35.4 40.44C35.4 45.0267 33.8533 48.76 30.76 51.64C27.6667 54.52 23.48 55.96 18.2 55.96ZM59.7275 55.96C56.6342 55.96 53.8875 55.16 51.4875 53.56C49.1408 51.96 47.2742 49.8267 45.8875 47.16C44.5542 44.44 43.5408 41.5067 42.8475 38.36C42.1542 35.16 41.8075 31.8267 41.8075 28.36C41.8075 24.8933 42.1542 21.5867 42.8475 18.44C43.5408 15.24 44.5542 12.3067 45.8875 9.64C47.2742 6.97333 49.1408 4.84 51.4875 3.24C53.8875 1.64 56.6342 0.839996 59.7275 0.839996C63.8342 0.839996 67.2742 2.25333 70.0475 5.08C72.8742 7.85333 74.8475 11.24 75.9675 15.24C77.1408 19.24 77.7275 23.6133 77.7275 28.36C77.7275 33.1067 77.1408 37.48 75.9675 41.48C74.8475 45.48 72.8742 48.8933 70.0475 51.72C67.2742 54.5467 63.8342 55.96 59.7275 55.96ZM59.7275 48.04C65.7008 48.04 68.6875 41.48 68.6875 28.36C68.6875 15.24 65.7008 8.68 59.7275 8.68C53.8075 8.68 50.8475 15.24 50.8475 28.36C50.8475 41.48 53.8075 48.04 59.7275 48.04ZM101.837 55.96C98.7435 55.96 95.9969 55.16 93.5969 53.56C91.2502 51.96 89.3835 49.8267 87.9969 47.16C86.6635 44.44 85.6502 41.5067 84.9569 38.36C84.2635 35.16 83.9169 31.8267 83.9169 28.36C83.9169 24.8933 84.2635 21.5867 84.9569 18.44C85.6502 15.24 86.6635 12.3067 87.9969 9.64C89.3835 6.97333 91.2502 4.84 93.5969 3.24C95.9969 1.64 98.7435 0.839996 101.837 0.839996C105.944 0.839996 109.384 2.25333 112.157 5.08C114.984 7.85333 116.957 11.24 118.077 15.24C119.25 19.24 119.837 23.6133 119.837 28.36C119.837 33.1067 119.25 37.48 118.077 41.48C116.957 45.48 114.984 48.8933 112.157 51.72C109.384 54.5467 105.944 55.96 101.837 55.96ZM101.837 48.04C107.81 48.04 110.797 41.48 110.797 28.36C110.797 15.24 107.81 8.68 101.837 8.68C95.9169 8.68 92.9569 15.24 92.9569 28.36C92.9569 41.48 95.9169 48.04 101.837 48.04ZM143.946 55.96C140.853 55.96 138.106 55.16 135.706 53.56C133.36 51.96 131.493 49.8267 130.106 47.16C128.773 44.44 127.76 41.5067 127.066 38.36C126.373 35.16 126.026 31.8267 126.026 28.36C126.026 24.8933 126.373 21.5867 127.066 18.44C127.76 15.24 128.773 12.3067 130.106 9.64C131.493 6.97333 133.36 4.84 135.706 3.24C138.106 1.64 140.853 0.839996 143.946 0.839996C148.053 0.839996 151.493 2.25333 154.266 5.08C157.093 7.85333 159.066 11.24 160.186 15.24C161.36 19.24 161.946 23.6133 161.946 28.36C161.946 33.1067 161.36 37.48 160.186 41.48C159.066 45.48 157.093 48.8933 154.266 51.72C151.493 54.5467 148.053 55.96 143.946 55.96ZM143.946 48.04C149.92 48.04 152.906 41.48 152.906 28.36C152.906 15.24 149.92 8.68 143.946 8.68C138.026 8.68 135.066 15.24 135.066 28.36C135.066 41.48 138.026 48.04 143.946 48.04Z" fill="#A30C33"/>
</svg>
