<svg width="162" height="56" viewBox="0 0 162 56" fill="none" xmlns="http://www.w3.org/2000/svg">
<path opacity="0.95" d="M34.64 55H1.84V47.8C11.92 37.2933 18.3467 30.2267 21.12 26.6C23.9467 22.9733 25.36 19.56 25.36 16.36C25.36 14.0133 24.6133 12.1467 23.12 10.76C21.6267 9.37333 19.8133 8.68 17.68 8.68C12.9867 8.68 9.2 10.7867 6.32 15L0.88 9.48C4.98667 3.72 10.6133 0.839996 17.76 0.839996C22.56 0.839996 26.5333 2.25333 29.68 5.08C32.8267 7.85333 34.4 11.5867 34.4 16.28C34.4 20.2267 32.9867 24.3067 30.16 28.52C27.3867 32.68 22.2667 38.8933 14.8 47.16H34.64V55ZM59.5869 55.96C56.4935 55.96 53.7469 55.16 51.3469 53.56C49.0002 51.96 47.1335 49.8267 45.7469 47.16C44.4135 44.44 43.4002 41.5067 42.7069 38.36C42.0135 35.16 41.6669 31.8267 41.6669 28.36C41.6669 24.8933 42.0135 21.5867 42.7069 18.44C43.4002 15.24 44.4135 12.3067 45.7469 9.64C47.1335 6.97333 49.0002 4.84 51.3469 3.24C53.7469 1.64 56.4935 0.839996 59.5869 0.839996C63.6935 0.839996 67.1335 2.25333 69.9069 5.08C72.7335 7.85333 74.7069 11.24 75.8269 15.24C77.0002 19.24 77.5869 23.6133 77.5869 28.36C77.5869 33.1067 77.0002 37.48 75.8269 41.48C74.7069 45.48 72.7335 48.8933 69.9069 51.72C67.1335 54.5467 63.6935 55.96 59.5869 55.96ZM59.5869 48.04C65.5602 48.04 68.5469 41.48 68.5469 28.36C68.5469 15.24 65.5602 8.68 59.5869 8.68C53.6669 8.68 50.7069 15.24 50.7069 28.36C50.7069 41.48 53.6669 48.04 59.5869 48.04ZM101.696 55.96C98.6029 55.96 95.8563 55.16 93.4563 53.56C91.1096 51.96 89.2429 49.8267 87.8563 47.16C86.5229 44.44 85.5096 41.5067 84.8163 38.36C84.1229 35.16 83.7763 31.8267 83.7763 28.36C83.7763 24.8933 84.1229 21.5867 84.8163 18.44C85.5096 15.24 86.5229 12.3067 87.8563 9.64C89.2429 6.97333 91.1096 4.84 93.4563 3.24C95.8563 1.64 98.6029 0.839996 101.696 0.839996C105.803 0.839996 109.243 2.25333 112.016 5.08C114.843 7.85333 116.816 11.24 117.936 15.24C119.11 19.24 119.696 23.6133 119.696 28.36C119.696 33.1067 119.11 37.48 117.936 41.48C116.816 45.48 114.843 48.8933 112.016 51.72C109.243 54.5467 105.803 55.96 101.696 55.96ZM101.696 48.04C107.67 48.04 110.656 41.48 110.656 28.36C110.656 15.24 107.67 8.68 101.696 8.68C95.7763 8.68 92.8163 15.24 92.8163 28.36C92.8163 41.48 95.7763 48.04 101.696 48.04ZM143.806 55.96C140.712 55.96 137.966 55.16 135.566 53.56C133.219 51.96 131.352 49.8267 129.966 47.16C128.632 44.44 127.619 41.5067 126.926 38.36C126.232 35.16 125.886 31.8267 125.886 28.36C125.886 24.8933 126.232 21.5867 126.926 18.44C127.619 15.24 128.632 12.3067 129.966 9.64C131.352 6.97333 133.219 4.84 135.566 3.24C137.966 1.64 140.712 0.839996 143.806 0.839996C147.912 0.839996 151.352 2.25333 154.126 5.08C156.952 7.85333 158.926 11.24 160.046 15.24C161.219 19.24 161.806 23.6133 161.806 28.36C161.806 33.1067 161.219 37.48 160.046 41.48C158.926 45.48 156.952 48.8933 154.126 51.72C151.352 54.5467 147.912 55.96 143.806 55.96ZM143.806 48.04C149.779 48.04 152.766 41.48 152.766 28.36C152.766 15.24 149.779 8.68 143.806 8.68C137.886 8.68 134.926 15.24 134.926 28.36C134.926 41.48 137.886 48.04 143.806 48.04Z" fill="#A30C33"/>
</svg>
