<svg width="202" height="56" viewBox="0 0 202 56" fill="none" xmlns="http://www.w3.org/2000/svg">
<path opacity="0.95" d="M18.2 55.96C14.3067 55.96 10.8667 55.16 7.88 53.56C4.89333 51.9067 2.57333 49.8 0.92 47.24L6.36 41.72C9.29333 45.9333 13.1067 48.04 17.8 48.04C20.7333 48.04 22.92 47.2933 24.36 45.8C25.8533 44.3067 26.6 42.2533 26.6 39.64C26.6 34.3067 23.5067 31.64 17.32 31.64C14.7067 31.64 13.16 31.6933 12.68 31.8V23.8C13.2133 23.8533 14.7067 23.88 17.16 23.88C19.7733 23.88 21.88 23.2667 23.48 22.04C25.08 20.76 25.88 18.92 25.88 16.52C25.88 13.96 25.1067 12.0133 23.56 10.68C22.0667 9.34666 20.0667 8.68 17.56 8.68C13.2933 8.68 9.72 10.6 6.84 14.44L1.64 9.32C5.48 3.66666 11 0.839996 18.2 0.839996C23.2133 0.839996 27.2133 2.09333 30.2 4.6C33.1867 7.05333 34.68 10.5733 34.68 15.16C34.68 18.2 33.72 20.8667 31.8 23.16C29.88 25.4 27.56 26.8133 24.84 27.4C27.6133 27.8267 30.0667 29.24 32.2 31.64C34.3333 33.9867 35.4 36.92 35.4 40.44C35.4 45.0267 33.8533 48.76 30.76 51.64C27.6667 54.52 23.48 55.96 18.2 55.96ZM59.7275 55.96C56.6342 55.96 53.8875 55.16 51.4875 53.56C49.1408 51.96 47.2742 49.8267 45.8875 47.16C44.5542 44.44 43.5408 41.5067 42.8475 38.36C42.1542 35.16 41.8075 31.8267 41.8075 28.36C41.8075 24.8933 42.1542 21.5867 42.8475 18.44C43.5408 15.24 44.5542 12.3067 45.8875 9.64C47.2742 6.97333 49.1408 4.84 51.4875 3.24C53.8875 1.64 56.6342 0.839996 59.7275 0.839996C63.8342 0.839996 67.2742 2.25333 70.0475 5.08C72.8742 7.85333 74.8475 11.24 75.9675 15.24C77.1408 19.24 77.7275 23.6133 77.7275 28.36C77.7275 33.1067 77.1408 37.48 75.9675 41.48C74.8475 45.48 72.8742 48.8933 70.0475 51.72C67.2742 54.5467 63.8342 55.96 59.7275 55.96ZM59.7275 48.04C65.7008 48.04 68.6875 41.48 68.6875 28.36C68.6875 15.24 65.7008 8.68 59.7275 8.68C53.8075 8.68 50.8475 15.24 50.8475 28.36C50.8475 41.48 53.8075 48.04 59.7275 48.04ZM99.19 55.96V49.16C100.843 49.16 102.123 48.28 103.03 46.52C103.99 44.76 104.683 41.4533 105.11 36.6L106.87 16.36H131.83V55H123.91V23.32H114.15L113.11 37.24C112.577 44.0667 111.163 48.8933 108.87 51.72C106.577 54.5467 103.35 55.96 99.19 55.96ZM156.738 55.96C151.458 55.96 147.245 54.0933 144.098 50.36C140.951 46.6267 139.378 41.72 139.378 35.64C139.378 29.88 140.871 25.08 143.858 21.24C146.898 17.3467 150.925 15.4 155.938 15.4C161.005 15.4 164.951 17.32 167.778 21.16C170.605 25 172.018 29.9333 172.018 35.96V38.28H147.458C147.618 41.5867 148.578 44.28 150.338 46.36C152.098 48.3867 154.498 49.4 157.538 49.4C161.005 49.4 163.911 48.0133 166.258 45.24L170.098 50.04C166.631 53.9867 162.178 55.96 156.738 55.96ZM164.258 32.6C164.205 29.7733 163.485 27.2933 162.098 25.16C160.765 22.9733 158.685 21.88 155.858 21.88C153.138 21.88 151.085 22.9733 149.698 25.16C148.311 27.3467 147.538 29.8267 147.378 32.6H164.258ZM192.629 55H184.629V23.32H175.909V16.36H201.349V23.32H192.629V55Z" fill="#A30C33"/>
</svg>
